<?xml version="1.0" encoding="UTF-8"?>
<!DOCTYPE svg PUBLIC "-//W3C//DTD SVG 1.1//EN" "http://www.w3.org/Graphics/SVG/1.1/DTD/svg11.dtd">
<svg xmlns="http://www.w3.org/2000/svg" version="1.1" width="775px" height="395px" style="shape-rendering:geometricPrecision; text-rendering:geometricPrecision; image-rendering:optimizeQuality; fill-rule:evenodd; clip-rule:evenodd" xmlns:xlink="http://www.w3.org/1999/xlink">
<g><path style="opacity:0.908" fill="#da4453" d="M 267.5,0.5 C 268.117,0.610709 268.617,0.944043 269,1.5C 270,6.5 271,11.5 272,16.5C 276.765,14.7085 281.598,14.0419 286.5,14.5C 287.309,16.0709 287.643,17.7376 287.5,19.5C 282.457,20.0083 277.457,20.8416 272.5,22C 274.073,27.0301 275.073,32.1967 275.5,37.5C 273.738,37.3573 272.071,37.6906 270.5,38.5C 268.963,33.6086 267.963,28.6086 267.5,23.5C 263.094,23.6475 258.761,24.3141 254.5,25.5C 253.558,25.3918 252.725,25.0585 252,24.5C 251.506,22.8659 251.34,21.1992 251.5,19.5C 256.186,18.9627 260.853,18.296 265.5,17.5C 264.704,12.1839 264.037,6.85058 263.5,1.5C 265.099,1.76781 266.432,1.43448 267.5,0.5 Z"/></g>
<g><path style="opacity:0.876" fill="#d94452" d="M 438.5,30.5 C 449.996,37.0818 460.996,44.4151 471.5,52.5C 460.745,58.2942 449.912,63.9608 439,69.5C 438.5,56.5043 438.333,43.5043 438.5,30.5 Z M 442.5,38.5 C 449.783,42.48 456.783,46.98 463.5,52C 456.588,55.3723 449.755,58.8723 443,62.5C 442.5,54.5069 442.334,46.5069 442.5,38.5 Z"/></g>
<g><path style="opacity:0.949" fill="#da4755" d="M 497.5,37.5 C 508.465,39.0923 511.965,45.0923 508,55.5C 501.667,62.1667 495.333,62.1667 489,55.5C 485.719,46.3994 488.553,40.3994 497.5,37.5 Z"/></g>
<g><path style="opacity:1" fill="#fdf7f7" d="M 496.5,42.5 C 502.702,42.5307 505.535,45.5307 505,51.5C 501.352,56.3313 497.352,56.6646 493,52.5C 491.581,48.0823 492.748,44.7489 496.5,42.5 Z"/></g>
<g><path style="opacity:0.964" fill="#da4755" d="M 335.5,53.5 C 347.133,54.4215 350.966,60.4215 347,71.5C 340.667,78.1667 334.333,78.1667 328,71.5C 324.265,62.658 326.765,56.658 335.5,53.5 Z"/></g>
<g><path style="opacity:1" fill="#fef8f9" d="M 334.5,58.5 C 339.794,57.6239 343.127,59.7905 344.5,65C 341.775,71.8728 337.608,73.0395 332,68.5C 330.861,64.5789 331.695,61.2456 334.5,58.5 Z"/></g>
<g><path style="opacity:0.952" fill="#da4453" d="M 270.5,305.5 C 272.342,305.277 274.175,304.943 276,304.5C 279.372,304.609 282.206,305.609 284.5,307.5C 284.389,308.117 284.056,308.617 283.5,309C 280.854,309.497 278.187,309.664 275.5,309.5C 274.288,324.504 272.954,339.504 271.5,354.5C 271.54,356.429 271.873,358.262 272.5,360C 348.833,360.667 425.167,360.667 501.5,360C 497.093,297.518 491.593,235.018 485,172.5C 477.246,171.683 469.412,171.183 461.5,171C 459.919,170.293 458.419,169.46 457,168.5C 454.931,141.841 442.764,121.341 420.5,107C 386.281,91.1763 356.781,97.3429 332,125.5C 323.023,138.429 318.023,152.762 317,168.5C 316.097,169.701 314.931,170.535 313.5,171C 305.833,171.333 298.167,171.667 290.5,172C 289.667,172.833 288.833,173.667 288,174.5C 285.956,192.49 284.122,210.49 282.5,228.5C 285.187,228.336 287.854,228.503 290.5,229C 291.381,229.708 292.047,230.542 292.5,231.5C 288.554,232.527 284.554,232.694 280.5,232C 279.429,231.148 278.429,230.315 277.5,229.5C 278.999,212.842 280.499,196.175 282,179.5C 281.419,173.826 283.586,169.659 288.5,167C 296.167,166.667 303.833,166.333 311.5,166C 313.715,143.238 323.381,124.238 340.5,109C 366.416,91.0441 393.75,88.7108 422.5,102C 445.912,116.125 458.745,136.959 461,164.5C 461.75,165.126 462.584,165.626 463.5,166C 471.167,166.333 478.833,166.667 486.5,167C 487.667,168.167 488.833,169.333 490,170.5C 496.511,234.117 502.177,297.784 507,361.5C 505.786,363.049 504.286,364.215 502.5,365C 425.167,365.667 347.833,365.667 270.5,365C 269.069,364.535 267.903,363.701 267,362.5C 266.833,360.167 266.667,357.833 266.5,355.5C 267.944,338.837 269.278,322.17 270.5,305.5 Z M 379.5,124.5 C 408.594,123.285 428.927,135.952 440.5,162.5C 440.032,164.134 439.032,165.3 437.5,166C 420.667,166.167 403.833,166.333 387,166.5C 369.412,166.654 351.912,166.154 334.5,165C 333.446,163.612 333.28,162.112 334,160.5C 342.873,140.452 358.04,128.452 379.5,124.5 Z"/></g>
<g><path style="opacity:0.906" fill="#d94352" d="M 153.5,104.5 C 155.5,104.5 157.5,104.5 159.5,104.5C 159.5,109.833 159.5,115.167 159.5,120.5C 164.5,120.5 169.5,120.5 174.5,120.5C 174.5,122.167 174.5,123.833 174.5,125.5C 169.5,125.5 164.5,125.5 159.5,125.5C 159.5,130.833 159.5,136.167 159.5,141.5C 157.5,141.5 155.5,141.5 153.5,141.5C 153.5,136.167 153.5,130.833 153.5,125.5C 148.5,125.5 143.5,125.5 138.5,125.5C 138.5,123.833 138.5,122.167 138.5,120.5C 143.5,120.5 148.5,120.5 153.5,120.5C 153.5,115.167 153.5,109.833 153.5,104.5 Z"/></g>
<g><path style="opacity:0.958" fill="#da4352" d="M 377.5,119.5 C 409.915,117.274 432.415,130.941 445,160.5C 446.019,165.96 443.853,169.46 438.5,171C 404.167,171.667 369.833,171.667 335.5,171C 329.036,169.244 326.87,165.077 329,158.5C 338.492,137.026 354.659,124.026 377.5,119.5 Z M 379.5,124.5 C 358.04,128.452 342.873,140.452 334,160.5C 333.28,162.112 333.446,163.612 334.5,165C 351.912,166.154 369.412,166.654 387,166.5C 403.833,166.333 420.667,166.167 437.5,166C 439.032,165.3 440.032,164.134 440.5,162.5C 428.927,135.952 408.594,123.285 379.5,124.5 Z"/></g>
<g><path style="opacity:0.907" fill="#da4352" d="M 239.5,132.5 C 241.857,132.337 244.19,132.503 246.5,133C 240.961,144.577 235.295,156.077 229.5,167.5C 222.125,156.586 215.125,145.419 208.5,134C 219.008,133.83 229.341,133.33 239.5,132.5 Z M 215.5,138.5 C 223.323,137.344 231.323,137.177 239.5,138C 236.003,145.149 232.503,152.316 229,159.5C 224.974,152.095 220.474,145.095 215.5,138.5 Z"/></g>
<g><path style="opacity:0.902" fill="#da4453" d="M 592.5,142.5 C 594.713,142.848 596.713,143.681 598.5,145C 596.987,149.716 595.32,154.383 593.5,159C 598.594,160.245 603.261,162.245 607.5,165C 607.122,166.635 606.456,168.135 605.5,169.5C 600.945,167.927 596.445,166.26 592,164.5C 590.459,169.625 588.626,174.625 586.5,179.5C 584.435,179.047 582.768,178.047 581.5,176.5C 583.073,171.945 584.74,167.445 586.5,163C 582.213,161.512 577.88,160.178 573.5,159C 572.251,156.79 572.418,154.624 574,152.5C 578.602,154.367 583.268,156.034 588,157.5C 589.659,152.527 591.159,147.527 592.5,142.5 Z"/></g>
<g><path style="opacity:0.966" fill="#db4956" d="M 117.5,185.5 C 134.639,184.801 141.472,192.801 138,209.5C 132.572,217.976 125.072,220.476 115.5,217C 106.573,211.334 104.073,203.501 108,193.5C 110.362,189.755 113.528,187.089 117.5,185.5 Z"/></g>
<g><path style="opacity:1" fill="#fefbfb" d="M 119.5,189.5 C 130.675,189.838 135.509,195.505 134,206.5C 129.872,213.489 124.039,215.322 116.5,212C 107.887,203.181 108.887,195.681 119.5,189.5 Z"/></g>
<g><path style="opacity:0.988" fill="#fefdfd" d="M 277.5,229.5 C 278.429,230.315 279.429,231.148 280.5,232C 284.554,232.694 288.554,232.527 292.5,231.5C 294.965,231.767 297.299,232.434 299.5,233.5C 299.297,235.39 299.963,236.89 301.5,238C 303.116,238.615 304.449,239.615 305.5,241C 306.793,241.49 308.127,241.657 309.5,241.5C 311.914,242.911 313.581,244.911 314.5,247.5C 313.527,249.068 313.36,250.735 314,252.5C 315.044,253.623 315.71,254.956 316,256.5C 316.816,257.823 317.983,258.489 319.5,258.5C 320.167,261.167 320.833,263.833 321.5,266.5C 320.504,266.414 319.671,266.748 319,267.5C 318.608,270.188 318.108,272.855 317.5,275.5C 317.453,277.038 318.12,278.038 319.5,278.5C 319.037,281.221 318.371,283.888 317.5,286.5C 315.856,286.286 314.356,286.62 313,287.5C 312.385,289.116 311.385,290.449 310,291.5C 309.235,293.066 309.402,294.399 310.5,295.5C 308.393,297.727 306.06,299.727 303.5,301.5C 300.403,300.212 297.403,300.712 294.5,303C 293.177,303.816 292.511,304.983 292.5,306.5C 289.873,307.092 287.206,307.425 284.5,307.5C 282.206,305.609 279.372,304.609 276,304.5C 274.175,304.943 272.342,305.277 270.5,305.5C 268.297,305.396 266.297,304.73 264.5,303.5C 264.649,302.448 264.483,301.448 264,300.5C 261.876,299.378 260.043,297.878 258.5,296C 257.251,295.26 256.251,295.427 255.5,296.5C 252.757,294.761 250.757,292.427 249.5,289.5C 250.265,285.95 249.431,282.617 247,279.5C 246.329,278.748 245.496,278.414 244.5,278.5C 243.612,275.946 243.279,273.279 243.5,270.5C 244.117,270.389 244.617,270.056 245,269.5C 245.27,266.776 245.77,264.109 246.5,261.5C 246.058,260.261 245.391,259.261 244.5,258.5C 245.167,256.167 245.833,253.833 246.5,251.5C 251.753,250.246 254.42,246.913 254.5,241.5C 255.891,239.11 257.891,237.443 260.5,236.5C 261.265,236.923 262.098,237.257 263,237.5C 265.289,235.94 267.789,234.773 270.5,234C 271.337,232.989 271.67,231.822 271.5,230.5C 273.621,230.675 275.621,230.341 277.5,229.5 Z"/></g>
<g><path style="opacity:0.949" fill="#da4856" d="M 271.5,230.5 C 271.67,231.822 271.337,232.989 270.5,234C 267.789,234.773 265.289,235.94 263,237.5C 262.098,237.257 261.265,236.923 260.5,236.5C 260.5,235.167 260.5,233.833 260.5,232.5C 264.085,231.417 267.751,230.751 271.5,230.5 Z"/></g>
<g><path style="opacity:0.988" fill="#da4755" d="M 299.5,233.5 C 305.582,232.928 308.916,235.595 309.5,241.5C 308.127,241.657 306.793,241.49 305.5,241C 304.449,239.615 303.116,238.615 301.5,238C 299.963,236.89 299.297,235.39 299.5,233.5 Z"/></g>
<g><path style="opacity:0.944" fill="#da4755" d="M 254.5,241.5 C 254.42,246.913 251.753,250.246 246.5,251.5C 245.972,250.153 245.805,248.819 246,247.5C 247.878,245.957 249.378,244.124 250.5,242C 251.793,241.51 253.127,241.343 254.5,241.5 Z"/></g>
<g><path style="opacity:0.953" fill="#db4a57" d="M 314.5,247.5 C 316.911,247.137 318.411,248.137 319,250.5C 320.476,253.265 320.643,255.932 319.5,258.5C 317.983,258.489 316.816,257.823 316,256.5C 315.71,254.956 315.044,253.623 314,252.5C 313.36,250.735 313.527,249.068 314.5,247.5 Z"/></g>
<g><path style="opacity:1" fill="#dc505c" d="M 278.5,251.5 C 286.706,250.217 291.873,253.551 294,261.5C 295.113,268.715 294.446,275.715 292,282.5C 287.146,287.908 281.646,288.741 275.5,285C 273.932,282.696 272.765,280.196 272,277.5C 271.333,271.5 271.333,265.5 272,259.5C 273.305,256.039 275.471,253.372 278.5,251.5 Z"/></g>
<g><path style="opacity:1" fill="#fefafa" d="M 279.5,254.5 C 285.26,253.673 288.76,256.006 290,261.5C 291.216,268.791 290.383,275.791 287.5,282.5C 281.232,286.286 277.399,284.619 276,277.5C 275.333,271.5 275.333,265.5 276,259.5C 276.997,257.677 278.164,256.01 279.5,254.5 Z"/></g>
<g><path style="opacity:0.973" fill="#db4a57" d="M 244.5,258.5 C 245.391,259.261 246.058,260.261 246.5,261.5C 245.77,264.109 245.27,266.776 245,269.5C 244.617,270.056 244.117,270.389 243.5,270.5C 242.357,270.092 241.357,269.425 240.5,268.5C 241.23,265.891 241.73,263.224 242,260.5C 242.708,259.619 243.542,258.953 244.5,258.5 Z"/></g>
<g><path style="opacity:0.984" fill="#dc4d5a" d="M 321.5,266.5 C 322.58,269.743 322.747,273.076 322,276.5C 321.583,277.756 320.75,278.423 319.5,278.5C 318.12,278.038 317.453,277.038 317.5,275.5C 318.108,272.855 318.608,270.188 319,267.5C 319.671,266.748 320.504,266.414 321.5,266.5 Z"/></g>
<g><path style="opacity:0.954" fill="#d94452" d="M 351.5,269.5 C 361.309,269.138 363.976,273.305 359.5,282C 353.162,285.224 349.162,283.391 347.5,276.5C 348.086,273.651 349.42,271.318 351.5,269.5 Z"/></g>
<g><path style="opacity:0.942" fill="#da4352" d="M 425.5,269.5 C 435.247,269.085 437.913,273.252 433.5,282C 425.398,284.895 421.565,282.062 422,273.5C 422.69,271.65 423.856,270.316 425.5,269.5 Z"/></g>
<g><path style="opacity:0.956" fill="#da4655" d="M 244.5,278.5 C 245.496,278.414 246.329,278.748 247,279.5C 249.431,282.617 250.265,285.95 249.5,289.5C 246.405,289.374 244.572,287.707 244,284.5C 243.211,282.288 243.378,280.288 244.5,278.5 Z"/></g>
<g><path style="opacity:0.969" fill="#da4452" d="M 50.5,282.5 C 59.1096,280.627 63.2763,283.96 63,292.5C 62.2155,294.286 61.0488,295.786 59.5,297C 49.8528,299.625 45.6861,296.125 47,286.5C 47.6897,284.65 48.8564,283.316 50.5,282.5 Z"/></g>
<g><path style="opacity:0.965" fill="#d94453" d="M 90.5,282.5 C 132.501,282.333 174.501,282.5 216.5,283C 219.366,284.393 220.699,286.726 220.5,290C 220.699,293.274 219.366,295.607 216.5,297C 174.5,297.667 132.5,297.667 90.5,297C 87.6339,295.607 86.3006,293.274 86.5,290C 86.4302,286.634 87.7635,284.134 90.5,282.5 Z"/></g>
<g><path style="opacity:0.967" fill="#d94353" d="M 558.5,284.5 C 600.835,284.333 643.168,284.5 685.5,285C 686.416,285.374 687.25,285.874 688,286.5C 688.667,289.833 688.667,293.167 688,296.5C 686.829,297.893 685.329,298.727 683.5,299C 642.5,299.667 601.5,299.667 560.5,299C 558.671,298.727 557.171,297.893 556,296.5C 555.333,293.5 555.333,290.5 556,287.5C 556.698,286.309 557.531,285.309 558.5,284.5 Z"/></g>
<g><path style="opacity:0.968" fill="#da4352" d="M 718.5,283.5 C 724.83,282.989 728.496,285.822 729.5,292C 727.591,298.438 723.257,300.772 716.5,299C 712.723,296.045 711.557,292.212 713,287.5C 714.5,285.531 716.333,284.198 718.5,283.5 Z"/></g>
<g><path style="opacity:0.969" fill="#da4352" d="M 11.5,284.5 C 15.5336,285.08 19.5336,285.913 23.5,287C 25.9663,290.006 26.1329,293.173 24,296.5C 22.1509,297.561 20.1509,298.227 18,298.5C 12.8034,297.915 7.63675,297.248 2.5,296.5C 0.340889,293.555 0.174222,290.555 2,287.5C 5.1339,286.091 8.30057,285.091 11.5,284.5 Z"/></g>
<g><path style="opacity:0.968" fill="#da4655" d="M 317.5,286.5 C 317.723,291.6 315.389,294.6 310.5,295.5C 309.402,294.399 309.235,293.066 310,291.5C 311.385,290.449 312.385,289.116 313,287.5C 314.356,286.62 315.856,286.286 317.5,286.5 Z"/></g>
<g><path style="opacity:0.967" fill="#da4452" d="M 774.5,289.5 C 774.5,292.167 774.5,294.833 774.5,297.5C 773.711,297.783 773.044,298.283 772.5,299C 765.833,299.667 759.167,299.667 752.5,299C 749.571,294.938 749.904,291.272 753.5,288C 760.752,286.047 767.752,286.547 774.5,289.5 Z"/></g>
<g><path style="opacity:0.996" fill="#da4856" d="M 264.5,303.5 C 259.442,303.772 256.442,301.439 255.5,296.5C 256.251,295.427 257.251,295.26 258.5,296C 260.043,297.878 261.876,299.378 264,300.5C 264.483,301.448 264.649,302.448 264.5,303.5 Z"/></g>
<g><path style="opacity:0.957" fill="#db4856" d="M 303.5,301.5 C 301.422,306.423 297.755,308.09 292.5,306.5C 292.511,304.983 293.177,303.816 294.5,303C 297.403,300.712 300.403,300.212 303.5,301.5 Z"/></g>
<g><path style="opacity:0.966" fill="#da4352" d="M 386.5,301.5 C 396.886,300.543 406.553,302.71 415.5,308C 421.122,310.735 422.622,314.901 420,320.5C 417.421,322.347 414.588,322.847 411.5,322C 401.962,314.291 391.629,312.957 380.5,318C 372.667,319.5 369.5,316.333 371,308.5C 372.214,306.951 373.714,305.785 375.5,305C 379.254,303.691 382.921,302.525 386.5,301.5 Z"/></g>
<g><path style="opacity:0.951" fill="#da4755" d="M 85.5,321.5 C 103.845,320.348 110.679,328.681 106,346.5C 98.8079,355.213 90.3079,356.713 80.5,351C 71.2866,339.173 72.9533,329.34 85.5,321.5 Z"/></g>
<g><path style="opacity:1" fill="#fefafa" d="M 87.5,325.5 C 99.9979,325.487 104.831,331.487 102,343.5C 98.2229,349.043 93.0562,350.877 86.5,349C 80.4562,345.551 78.2895,340.385 80,333.5C 81.6904,329.979 84.1904,327.312 87.5,325.5 Z"/></g>
<g><path style="opacity:0.952" fill="#d94452" d="M 157.5,328.5 C 163.29,328.096 168.956,328.596 174.5,330C 176.504,332.841 177.004,336.007 176,339.5C 175.097,340.701 173.931,341.535 172.5,342C 166.719,342.903 161.053,342.57 155.5,341C 153.496,338.159 152.996,334.993 154,331.5C 155.145,330.364 156.312,329.364 157.5,328.5 Z"/></g>
<g><path style="opacity:0.947" fill="#d94452" d="M 196.5,328.5 C 217.169,328.333 237.836,328.5 258.5,329C 262.292,331.053 263.458,334.219 262,338.5C 260.786,340.049 259.286,341.215 257.5,342C 237.167,342.667 216.833,342.667 196.5,342C 192.304,339.019 191.471,335.186 194,330.5C 194.995,329.934 195.828,329.267 196.5,328.5 Z"/></g>
<g><path style="opacity:0.993" fill="#da4353" d="M 516.5,330.5 C 537.503,330.333 558.503,330.5 579.5,331C 584.041,334.714 584.374,338.714 580.5,343C 579.167,343.333 577.833,343.667 576.5,344C 557.5,344.667 538.5,344.667 519.5,344C 517.324,343.837 515.491,343.004 514,341.5C 513.333,338.5 513.333,335.5 514,332.5C 514.995,331.934 515.828,331.267 516.5,330.5 Z"/></g>
<g><path style="opacity:0.979" fill="#da4452" d="M 602.5,330.5 C 608.176,330.334 613.843,330.501 619.5,331C 624.493,337.436 623.16,341.769 615.5,344C 610.743,344.81 606.076,344.476 601.5,343C 597.334,338.368 597.667,334.202 602.5,330.5 Z"/></g>
<g><path style="opacity:0.957" fill="#d94453" d="M 66.5,380.5 C 70.9671,380.133 75.3004,380.633 79.5,382C 83.6538,389.877 81.1538,393.71 72,393.5C 64.3387,394.178 61.3387,390.844 63,383.5C 64.1451,382.364 65.3117,381.364 66.5,380.5 Z"/></g>
<g><path style="opacity:0.935" fill="#d94353" d="M 113.5,380.5 C 132.836,380.333 152.17,380.5 171.5,381C 176.459,383.375 177.459,386.875 174.5,391.5C 173.205,392.098 171.872,392.598 170.5,393C 151.5,393.667 132.5,393.667 113.5,393C 106.885,388.747 106.885,384.58 113.5,380.5 Z"/></g>
<g><path style="opacity:0.974" fill="#da4452" d="M 663.5,394.5 C 643.167,394.5 622.833,394.5 602.5,394.5C 598.567,390.71 598.567,386.876 602.5,383C 622.833,382.333 643.167,382.333 663.5,383C 667.433,386.876 667.433,390.71 663.5,394.5 Z"/></g>
<g><path style="opacity:0.969" fill="#da4352" d="M 710.5,394.5 C 705.833,394.5 701.167,394.5 696.5,394.5C 691.566,386.373 693.899,382.373 703.5,382.5C 713.527,382.175 715.86,386.175 710.5,394.5 Z"/></g>
</svg>
