<svg id="b57e85ce-5a1c-4f24-967b-b079c7354de0" data-name="icon-0" xmlns="http://www.w3.org/2000/svg" width="1959.85" height="184.94" viewBox="0 0 1959.85 184.94">
  <g id="a7aecc6d-af75-47e9-97c1-3ecb9b5b9f29" data-name="tight-bounds">
    <g>
      <path id="fdc64f14-3b7c-47d8-aa19-7b025457e1f5" data-name="qz-0" d="M346.27,0h0c3.94,0,7.13,8.9,7.13,19.88V165.05c0,11-3.19,19.89-7.13,19.89h0c-3.95,0-7.14-8.91-7.14-19.89V19.88C339.13,8.9,342.32,0,346.27,0Z" transform="translate(-4.64)" fill="#272b2b"/>
      <g id="e5ddd521-706a-4b50-b9a6-3d4968e708eb" data-name="textblocktransform">
        <path id="a1c82d3d-b5f8-4901-ac45-b25752b513e5" data-name="text-0" d="M419.19,107.55l.72-.54a106.19,106.19,0,0,0,17.45,4.22,115.69,115.69,0,0,0,18.85,1.55h0q12.82,0,19.07-1.19t8.2-3.68a10.23,10.23,0,0,0,2-6.5h0A9.06,9.06,0,0,0,484,96q-1.44-2-5.6-3.18a73.13,73.13,0,0,0-12.28-1.88h0l-11.92-1.08q-13.37-1.26-21-5.6a24.22,24.22,0,0,1-10.83-11.66A43.92,43.92,0,0,1,419.19,55h0q0-12.28,5-19.87T440.32,24q11.19-3.51,29.8-3.5h0q24.19,0,39.9,6.32h0l-.54,24.56-.54.72a111.17,111.17,0,0,0-37.38-6.32h0a81.39,81.39,0,0,0-14.45,1q-5.06,1-7,3.18a8.79,8.79,0,0,0-2,6.14h0a10.47,10.47,0,0,0,1.38,6q1.34,2,5.49,3a104.68,104.68,0,0,0,12.1,1.92h0l11.37,1.26Q492.87,69.8,500.63,74T511.4,85.05a43.22,43.22,0,0,1,3,16.9h0q0,12.1-5.13,20.15t-16.72,12q-11.56,4-30.88,4h0a169.62,169.62,0,0,1-22.76-1.38A184.48,184.48,0,0,1,419.19,133h0Zm142.12,26.36V170H532.42V48.5h27.45L561.31,61V62h.36a22.57,22.57,0,0,1,8.74-10.94q5.72-3.51,16.54-3.51h0q17.52,0,25.72,10.19t8.41,30.81h0q.38,18.24-3.72,29.14t-12.53,15.64q-8.49,4.69-21.67,4.7h0a55.93,55.93,0,0,1-12.39-1.27,40.84,40.84,0,0,1-9.1-3.07h0Zm16.25-61.76h0a16.08,16.08,0,0,0-11.73,4.41q-4.51,4.44-4.52,15.1h0v19A41.79,41.79,0,0,0,577,113.33h0q8.49,0,12.17-4.09t3.72-16.32h0q0-10.65-2.89-15.71T577.56,72.15ZM630.11,93.1h0q0-24.19,10.3-34.85t34.85-10.66h0q16.44,0,26.37,4.7A28.43,28.43,0,0,1,716,67q4.45,10,4.45,26.11h0q0,15.89-4.45,25.82a28,28,0,0,1-14.33,14.52q-9.95,4.63-26.37,4.63h0q-24.6,0-34.85-10.59T630.11,93.1Zm45.15,20.23h0q10.47,0,14.16-4.63t3.68-16.14h0q0-11-3.68-15.82T675.26,72h0q-10.15,0-14,4.77t-3.87,15.82h0q0,11.55,3.87,16.14T675.26,113.33ZM765,104.66l-.37,31.78H735.72V48.5H759.2l2.34,18h.55q1.62-10.11,7.76-14.55t18.24-4.41h0a81.79,81.79,0,0,1,8.85.44c2.65.31,4.87.59,6.68.83h0V77l-.36.36q-2.89-.72-6.57-1.26a57.56,57.56,0,0,0-8.42-.55h0a31.59,31.59,0,0,0-12,2.17q-5.34,2.18-8.31,8.38t-3,18.53Zm53.09,5.42h0V72.15H807.23V48.68h13.55l5.41-21.49H847V48.68h19.68V72.15H847v31.6q0,5.07,1.27,6.94c.84,1.28,2.76,1.91,5.77,1.91h0c1.93,0,4-.09,6.14-.29s4.34-.37,6.5-.61h0l.55.36v23.48q-8.67,2.52-22.94,2.53h0q-14.26,0-20.22-6.5T818.07,110.08Zm60.85,1.8.55-.36a114.85,114.85,0,0,0,31.24,4h0a105.24,105.24,0,0,0,12.46-.54c2.77-.36,4.63-1,5.6-1.8a4.35,4.35,0,0,0,1.44-3.44h0c0-2-.76-3.31-2.27-3.79a90.76,90.76,0,0,0-8.93-2h0l-14.26-2.71Q891,98.52,885,92.63t-6-17.59h0q0-15.89,9.47-21.67t30.26-5.78h0a158.75,158.75,0,0,1,21.93,1.34,102,102,0,0,1,15.82,3.36h0L956,74.14l-.54.54a104.06,104.06,0,0,0-32-4.69h0q-8.49,0-11.85,1.15a4.56,4.56,0,0,0-3.32,4.62h0a4.15,4.15,0,0,0,1,2.89c.67.73,2.21,1.41,4.62,2.06s6.2,1.5,11.38,2.46h0l13.18,2.53q11,2.34,16.25,7.76T960,110.62h0q0,10.29-3.79,16.32t-12.75,8.6q-8.93,2.52-24.64,2.53h0a185.93,185.93,0,0,1-22-1.2q-10-1.16-18-2.78h0Zm218.3-89.75,37,113.77v.54h-30.7q-1.27-4.33-3-9.93t-3.72-11.92h-39q-3.61,12.64-6.68,21.85h-30.7v-.36l37-114Zm-19.51,20.59H1077q-1.8,9.21-5.24,22.39T1064.53,92h25.82q-4-13.72-7.4-26.91t-5.24-22.39Zm98.06,91.19V170h-28.89V48.5h27.45L1175.77,61V62h.36a22.47,22.47,0,0,1,8.78-10.94q5.67-3.51,16.5-3.51h0q17.52,0,25.76,10.19t8.37,30.81h0q.38,18.24-3.68,29.14t-12.57,15.64q-8.49,4.69-21.67,4.7h0a55.36,55.36,0,0,1-12.35-1.27,40.89,40.89,0,0,1-9.14-3.07h0ZM1192,72.15h0a16.08,16.08,0,0,0-11.73,4.41q-4.51,4.44-4.52,15.1h0v19a41.79,41.79,0,0,0,15.71,2.71h0q8.49,0,12.21-4.09t3.68-16.32h0q0-10.65-2.89-15.71T1192,72.15Zm87.77,61.76V170h-28.9V48.5h27.45L1279.79,61V62h.36a22.57,22.57,0,0,1,8.74-10.94q5.7-3.51,16.54-3.51h0q17.52,0,25.72,10.19t8.41,30.81h0q.36,18.24-3.72,29.14t-12.53,15.64q-8.49,4.69-21.67,4.7h0a55.8,55.8,0,0,1-12.39-1.27,40.84,40.84,0,0,1-9.1-3.07h0ZM1296,72.15h0a16.1,16.1,0,0,0-11.74,4.41q-4.52,4.44-4.51,15.1h0v19a41.76,41.76,0,0,0,15.71,2.71h0q8.49,0,12.17-4.09t3.72-16.32h0q0-10.65-2.89-15.71T1296,72.15Zm92.28-24.56h0q17.34,0,28,3.61a26.33,26.33,0,0,1,15.6,13.26q5,9.67,5,27.92h0v44.06h-26.19l-.9-8.31h-.54q-3.43,4.51-10.66,7.23t-18.78,2.71h0q-31.23,0-31.24-29.26h0q0-12.47,8.2-19.61t25.93-7.12h26.73q-1.26-7.58-6.5-10.18t-17.88-2.64h0a105.19,105.19,0,0,0-15.64,1.16q-7.65,1.18-13.43,2.64h0l-.55-.37.18-20.94a86.1,86.1,0,0,1,9.21-2.1q5.61-1,11.81-1.52T1388.32,47.59Zm-1.08,69.17h0q11.19,0,16.79-2.82a9.66,9.66,0,0,0,5.78-8.92h0V100.5H1389.4q-7.94,0-11.12,2.24a7.12,7.12,0,0,0-3.14,6.07h0q0,4.51,3.25,6.21A18.87,18.87,0,0,0,1387.24,116.76Zm97.84-12.1-.36,31.78h-28.9V48.5h23.48l2.35,18h.54Q1483.81,56.44,1490,52t18.24-4.41h0A81.79,81.79,0,0,1,1517,48q4,.47,6.68.83h0V77l-.36.36c-1.92-.48-4.12-.9-6.57-1.26a57.56,57.56,0,0,0-8.42-.55h0a31.59,31.59,0,0,0-12,2.17q-5.34,2.18-8.3,8.38t-3,18.53Zm128.76,8.85v20a77.07,77.07,0,0,1-14,3.14,141.58,141.58,0,0,1-21.24,1.38h0q-15.52,0-26.44-4.09a30.56,30.56,0,0,1-16.54-13.9q-5.6-9.83-5.6-27.34h0q0-23.83,11-34.49t33.84-10.66h0q16.43,0,25.93,4.7a28.31,28.31,0,0,1,13.54,13.25q4,8.59,4,20.34h0q0,3.42-.25,7.4a69.86,69.86,0,0,1-1,7.77h0l-.73.72H1557q1.26,8,7.51,10.47t20.3,2.53h0q9.39,0,15.64-.47t12.71-1.34h0Zm-57.43-30.7h36.84a19.36,19.36,0,0,0-1.34-7.52,9.64,9.64,0,0,0-5.34-4.87q-4-1.69-11.74-1.7h0q-11.38,0-14.88,3.87a14.61,14.61,0,0,0-3.54,10.22Zm106.18-67.9V136.44H1633.7V14.91Zm104.71,7.22V136.44h-28.9V22.13Zm50.56,69v45.33H1789V48.5h27.45l1.44,16.07h.54a23,23,0,0,1,9-12.57q6.51-4.41,18.06-4.41h0q15.71,0,23.22,8.85t7.48,30.7h0v49.3H1847.3l-.18-43.7q0-10.11-3.07-14.45T1832.49,74h0q-8,0-11.2,3.86t-3.43,13.29Zm145.91,19.33.73.54v23.47q-4.51,1.81-13.37,2.71a182.92,182.92,0,0,1-18.78.91h0q-14.26,0-23.76-4a26.66,26.66,0,0,1-14.09-13.72q-4.59-9.75-4.77-27.09h0q0-17.88,5-27.81a28,28,0,0,1,14.56-13.9q9.57-4,22.93-4h0a137,137,0,0,1,16.8,1.09,79.08,79.08,0,0,1,14.44,2.89h0l.18,24.19-.54.37a104.49,104.49,0,0,0-11.56-1.63q-6.13-.54-12.09-.54h0q-12.11,0-16.8,4.51t-4.69,15.17h0q0,8.13,2,12.1a10,10,0,0,0,6.68,5.24,51.62,51.62,0,0,0,12.83,1.26h0q6.31,0,12.09-.54t12.28-1.26Z" transform="translate(-4.64)" fill="#272b2b"/>
      </g>
      <path d="M51.07,91.62H78.93V73.05H51.07Zm66.2,45.77a138.47,138.47,0,0,0,51.65,9.94H216a97.76,97.76,0,0,0,43.48-10.26l-8.3-16.62A79.12,79.12,0,0,1,216,128.76h-47.1a119.84,119.84,0,0,1-44.76-8.62,138.53,138.53,0,0,0-51.66-10H23.34a390.33,390.33,0,0,1,7.35-65h7.57a46.68,46.68,0,0,1,20.28,4.66l15.19,7.38a65.33,65.33,0,0,0,28.39,6.53h13.95V45.2H102.12a46.75,46.75,0,0,1-20.28-4.67L66.65,33.15a65.53,65.53,0,0,0-28.39-6.53H16l-1.75,7a389.09,389.09,0,0,0-9.57,85.82v9.28H72.5A120.09,120.09,0,0,1,117.27,137.39Zm154.9,39.78a69.85,69.85,0,0,1-30,7.31H32.5A27.89,27.89,0,0,1,4.64,156.62v-9.29H23.21v9.29a9.29,9.29,0,0,0,9.29,9.29H242.15a51.15,51.15,0,0,0,21.75-5.37,34.81,34.81,0,0,0,19.31-31.28V100.91a27.89,27.89,0,0,0-27.86-27.86h-12a37.37,37.37,0,0,1-16.6-3.92l-4.39-2.19L208,95.77l-16.62-8.3,14.42-28.84L185.22,48.37,170.81,77.2l-16.63-8.3,14.43-28.84L128.53,20a9.23,9.23,0,0,0-12.41,4.05s0,.07-.05.1l-1,2-16.62-8.3,1-2A27.85,27.85,0,0,1,136.83,3.41L235,52.52a18.73,18.73,0,0,0,8.31,2h12a46.48,46.48,0,0,1,46.43,46.43v27.85A53.49,53.49,0,0,1,272.17,177.17Z" transform="translate(-4.64)" fill="#dd6031" fill-rule="evenodd"/>
    </g>
  </g>
</svg>
