<?xml version="1.0" standalone="no"?>
<!DOCTYPE svg PUBLIC "-//W3C//DTD SVG 1.0//EN" "http://www.w3.org/TR/2001/REC-SVG-20010904/DTD/svg10.dtd">
<svg xmlns="http://www.w3.org/2000/svg" xmlns:xlink="http://www.w3.org/1999/xlink" id="body_1" width="1000" height="93">

<g transform="matrix(0.5 0 0 0.5 0 0)">
	<g transform="matrix(1 0 0 1 -1.2121212 6.622085)">
		<g transform="matrix(5.027027 0 0 5.027027 9.29727 -0)">
			<g transform="matrix(1 0 0 1 0.24 0.28578725)">
				<g transform="matrix(1 0 0 1 0 0)">
					<g>
						<g transform="matrix(0.8058076 0 0 0.8058076 0 0)">
							<g>
                                <path d="M82.57287 1C 82.57287 0.44771525 83.020584 0 83.57287 0L83.57287 0L85.09542 0C 85.647705 0 86.09542 0.44771525 86.09542 1L86.09542 1L86.09542 44.654186C 86.09542 45.20647 85.647705 45.654186 85.09542 45.654186L85.09542 45.654186L83.57287 45.654186C 83.020584 45.654186 82.57287 45.20647 82.57287 44.654186L82.57287 44.654186L82.57287 1z" stroke="none" fill="#272B2B" fill-rule="nonzero" />
							</g>
							<g transform="matrix(1 0 0 1 95.31676 0.11356763)">
								<g transform="matrix(1 0 0 1 0 0)">
									<g>
										<g transform="matrix(1 0 0 1 0 0)">
											<g>
												<g transform="matrix(1 0 0 1 0 0)">
													<g transform="matrix(1 0 0 1 0 0)">
														<g transform="matrix(0.8916006 0 0 0.8916006 5.2366843 33.88082)">
                                                            <path transform="matrix(1 0 0 1 0 0)"  d="M2 -8.45L2.2 -8.6C 3.6666667 -8.1 5.2766666 -7.71 7.03 -7.43C 8.776667 -7.1433334 10.516666 -7.0000005 12.25 -7C 14.616667 -7.0000005 16.376667 -7.1100006 17.53 -7.33C 18.676668 -7.543334 19.433334 -7.883334 19.8 -8.35C 20.166668 -8.816668 20.350002 -9.416667 20.35 -10.15C 20.350002 -10.783334 20.216667 -11.283334 19.95 -11.65C 19.683334 -12.016666 19.166666 -12.309999 18.4 -12.53C 17.633333 -12.743334 16.5 -12.916668 15 -13.05L15 -13.05L11.7 -13.35C 9.233334 -13.583334 7.2933335 -14.1 5.88 -14.9C 4.46 -15.700001 3.46 -16.776667 2.88 -18.13C 2.2933335 -19.476665 2 -21.1 2 -23C 2 -25.266666 2.46 -27.1 3.38 -28.5C 4.2933335 -29.900002 5.783334 -30.926668 7.85 -31.58C 9.916667 -32.22667 12.666667 -32.550003 16.1 -32.55C 20.566666 -32.550003 24.25 -31.966667 27.15 -30.8L27.15 -30.8L27 -24L26.85 -23.8C 23.550001 -24.966667 20.1 -25.55 16.5 -25.55C 14.766666 -25.55 13.433333 -25.46 12.5 -25.28C 11.566668 -25.093334 10.916668 -24.800001 10.55 -24.4C 10.183334 -24 10 -23.433334 10 -22.7C 10 -21.966667 10.126667 -21.416668 10.38 -21.05C 10.626667 -20.683334 11.133333 -20.41 11.9 -20.23C 12.666668 -20.043335 13.783335 -19.866669 15.25 -19.7L15.25 -19.7L18.4 -19.35C 21.066666 -19.050001 23.116667 -18.516666 24.55 -17.75C 25.983334 -16.983334 26.97667 -15.960001 27.53 -14.68C 28.076668 -13.393333 28.350002 -11.833334 28.35 -10C 28.350002 -7.766667 27.876669 -5.9066668 26.93 -4.42C 25.976667 -2.94 24.433334 -1.8333334 22.3 -1.1C 20.166668 -0.36666667 17.316668 0 13.75 0C 11.416667 0 9.316667 -0.12666667 7.45 -0.38C 5.5833335 -0.62666667 3.766667 -0.9666667 2 -1.4L2 -1.4L2 -8.45zM41.35 -1.15L41.35 8.85L33.35 8.85L33.35 -24.8L40.95 -24.8L41.35 -21.35L41.35 -21.05L41.45 -21.05C 42.01667 -22.416668 42.823334 -23.426666 43.87 -24.08C 44.923332 -24.726667 46.450005 -25.050001 48.45 -25.05C 51.683334 -25.050001 54.056667 -24.11 55.57 -22.23C 57.09 -20.343334 57.86667 -17.5 57.9 -13.7C 57.966667 -10.333333 57.623337 -7.6433334 56.87 -5.63C 56.123337 -3.6100001 54.966667 -2.1666667 53.4 -1.3C 51.833336 -0.43333334 49.833336 0 47.4 0C 46.133335 0 44.99 -0.11666667 43.97 -0.35C 42.95667 -0.5833333 42.11667 -0.8666667 41.45 -1.2L41.45 -1.2L41.35 -1.15zM45.85 -18.25C 44.516666 -18.25 43.433334 -17.843334 42.6 -17.03C 41.766666 -16.210001 41.35 -14.816668 41.35 -12.85L41.35 -12.85L41.35 -7.6C 42.583336 -7.1 44.033333 -6.85 45.7 -6.85C 47.266666 -6.85 48.39 -7.2266665 49.07 -7.98C 49.756668 -8.726667 50.100002 -10.233334 50.1 -12.5C 50.100002 -14.466667 49.833336 -15.916667 49.3 -16.85C 48.76667 -17.783333 47.61667 -18.25 45.85 -18.25zM60.4 -12.45C 60.400005 -16.916666 61.350006 -20.133333 63.25 -22.1C 65.14333 -24.066668 68.36 -25.050001 72.9 -25.05C 75.933334 -25.050001 78.36667 -24.616669 80.2 -23.75C 82.03333 -22.883335 83.35667 -21.526669 84.17 -19.68C 84.990005 -17.826668 85.4 -15.416666 85.4 -12.45C 85.4 -9.516666 84.990005 -7.1333337 84.17 -5.3C 83.35667 -3.4666667 82.03333 -2.1266668 80.2 -1.28C 78.36667 -0.42666668 75.933334 0 72.9 0C 68.36 0 65.14333 -0.9766667 63.25 -2.93C 61.350006 -4.876667 60.400005 -8.05 60.4 -12.45zM72.9 -6.85C 74.833336 -6.85 76.14 -7.2766666 76.82 -8.13C 77.5 -8.976666 77.84 -10.466667 77.84 -12.6C 77.84 -14.633333 77.5 -16.093334 76.82 -16.98C 76.14 -17.86 74.833336 -18.3 72.9 -18.3C 71.026665 -18.3 69.73333 -17.86 69.02 -16.98C 68.30666 -16.093334 67.95 -14.633333 67.95 -12.6C 67.95 -10.466667 68.30666 -8.976666 69.02 -8.13C 69.73333 -7.2766666 71.026665 -6.85 72.9 -6.85zM97.74 -9.25L97.64 -0.45L89.64 -0.45L89.64 -24.8L96.14 -24.8L96.79 -19.8L96.94 -19.8C 97.240005 -21.666668 97.956665 -23.010002 99.09 -23.83C 100.223335 -24.643333 101.90667 -25.050001 104.14 -25.05C 105.04 -25.050001 105.85667 -25.010002 106.59 -24.93C 107.32333 -24.843334 107.94 -24.766666 108.44 -24.7L108.44 -24.7L108.44 -16.9L108.34 -16.8C 107.80667 -16.933334 107.200005 -17.050001 106.52 -17.15C 105.833336 -17.25 105.05667 -17.3 104.19 -17.3C 102.95667 -17.3 101.850006 -17.1 100.87 -16.7C 99.88334 -16.300001 99.11667 -15.526667 98.57 -14.38C 98.01667 -13.226667 97.740005 -11.516666 97.74 -9.25zM112.44 -7.75L112.44 -18.25L109.44 -18.25L109.44 -24.75L113.19 -24.75L114.69 -30.7L120.44 -30.7L120.44 -24.75L125.89 -24.75L125.89 -18.25L120.44 -18.25L120.44 -9.5C 120.44 -8.566668 120.55667 -7.926667 120.79 -7.58C 121.02334 -7.226667 121.55667 -7.05 122.39 -7.05C 122.92334 -7.05 123.490005 -7.076667 124.09 -7.13C 124.69 -7.176667 125.29 -7.2333336 125.89 -7.3L125.89 -7.3L126.04 -7.2L126.04 -0.7C 124.44 -0.23333333 122.32333 0 119.69 0C 117.05667 0 115.19 -0.6 114.09 -1.8C 112.990005 -3 112.44001 -4.9833336 112.44 -7.75zM129.29 -7.25L129.44 -7.35C 132.04001 -6.616667 134.92334 -6.2500005 138.09 -6.25C 139.62334 -6.2500005 140.77335 -6.3 141.54 -6.4C 142.30667 -6.5 142.82333 -6.666667 143.09 -6.9C 143.35667 -7.1333337 143.49 -7.4500003 143.49 -7.85C 143.49 -8.416667 143.28 -8.766666 142.86 -8.9C 142.44669 -9.033334 141.62335 -9.216667 140.39 -9.45L140.39 -9.45L136.44 -10.2C 133.90668 -10.700001 132.08 -11.493334 130.96 -12.58C 129.84666 -13.660001 129.29 -15.283335 129.29 -17.45C 129.29 -20.383335 130.16333 -22.383335 131.91 -23.45C 133.66333 -24.516668 136.45667 -25.050001 140.29 -25.05C 142.59001 -25.050001 144.61334 -24.926668 146.36 -24.68C 148.11334 -24.426668 149.57335 -24.116669 150.74 -23.75L150.74 -23.75L150.64 -17.7L150.49 -17.55C 147.79001 -18.416668 144.84 -18.850002 141.64 -18.85C 140.07333 -18.850002 138.98001 -18.743336 138.36 -18.53C 137.74667 -18.310001 137.44 -17.883335 137.44 -17.25C 137.44 -16.916668 137.53 -16.650002 137.71 -16.45C 137.89667 -16.25 138.32333 -16.06 138.99 -15.88C 139.65668 -15.693335 140.70668 -15.466667 142.14 -15.2L142.14 -15.2L145.79 -14.5C 147.82333 -14.066668 149.32333 -13.35 150.29 -12.35C 151.25667 -11.35 151.74 -9.766666 151.74 -7.6C 151.74 -5.7 151.39001 -4.1933336 150.69 -3.08C 149.99 -1.96 148.81334 -1.1666666 147.16 -0.7C 145.51334 -0.23333333 143.24 0 140.34 0C 138.14 0 136.11334 -0.11000001 134.26 -0.33C 132.41333 -0.54333335 130.75667 -0.8 129.29 -1.1L129.29 -1.1L129.29 -7.25zM189.73 -32.1L199.98 -0.6L199.98 -0.45L191.48 -0.45C 191.24667 -1.25 190.97334 -2.1666667 190.66 -3.2C 190.34 -4.2333336 189.99667 -5.3333335 189.63 -6.5L189.63 -6.5L178.83 -6.5C 178.16333 -4.166667 177.54666 -2.15 176.98 -0.45L176.98 -0.45L168.48 -0.45L168.48 -0.55L178.73 -32.1L189.73 -32.1zM184.33 -26.4L184.13 -26.4C 183.79668 -24.7 183.31334 -22.633335 182.68 -20.2C 182.04666 -17.766666 181.38 -15.283333 180.68 -12.75L180.68 -12.75L187.83 -12.75C 187.09666 -15.283333 186.41333 -17.766666 185.78 -20.2C 185.14667 -22.633335 184.66333 -24.7 184.33 -26.4zM211.48 -1.15L211.48 8.85L203.48 8.85L203.48 -24.8L211.08 -24.8L211.48 -21.35L211.48 -21.05L211.58 -21.05C 212.14667 -22.416668 212.95667 -23.426666 214.01 -24.08C 215.05667 -24.726667 216.58 -25.050001 218.58 -25.05C 221.81334 -25.050001 224.19 -24.11 225.71 -22.23C 227.22333 -20.343334 227.99667 -17.5 228.03 -13.7C 228.09668 -10.333333 227.75667 -7.6433334 227.01 -5.63C 226.25667 -3.6100001 225.09668 -2.1666667 223.53 -1.3C 221.96335 -0.43333334 219.96335 0 217.53 0C 216.26334 0 215.12335 -0.11666667 214.11 -0.35C 213.09 -0.5833333 212.24667 -0.8666667 211.58 -1.2L211.58 -1.2L211.48 -1.15zM215.98 -18.25C 214.64667 -18.25 213.56334 -17.843334 212.73 -17.03C 211.89667 -16.210001 211.48 -14.816668 211.48 -12.85L211.48 -12.85L211.48 -7.6C 212.71333 -7.1 214.16333 -6.85 215.83 -6.85C 217.39667 -6.85 218.52335 -7.2266665 219.21 -7.98C 219.89001 -8.726667 220.23001 -10.233334 220.23 -12.5C 220.23001 -14.466667 219.96335 -15.916667 219.43 -16.85C 218.89667 -17.783333 217.74667 -18.25 215.98 -18.25zM240.28 -1.15L240.28 8.85L232.28 8.85L232.28 -24.8L239.88 -24.8L240.28 -21.35L240.28 -21.05L240.38 -21.05C 240.94669 -22.416668 241.75334 -23.426666 242.8 -24.08C 243.85335 -24.726667 245.38002 -25.050001 247.38 -25.05C 250.61334 -25.050001 252.98666 -24.11 254.5 -22.23C 256.02002 -20.343334 256.7967 -17.5 256.83 -13.7C 256.89667 -10.333333 256.55334 -7.6433334 255.8 -5.63C 255.05334 -3.6100001 253.89667 -2.1666667 252.33 -1.3C 250.76334 -0.43333334 248.76334 0 246.33 0C 245.06334 0 243.92001 -0.11666667 242.9 -0.35C 241.88669 -0.5833333 241.04669 -0.8666667 240.38 -1.2L240.38 -1.2L240.28 -1.15zM244.78 -18.25C 243.44667 -18.25 242.36334 -17.843334 241.53 -17.03C 240.69669 -16.210001 240.28001 -14.816668 240.28 -12.85L240.28 -12.85L240.28 -7.6C 241.51335 -7.1 242.96335 -6.85 244.63 -6.85C 246.19667 -6.85 247.32 -7.2266665 248 -7.98C 248.68668 -8.726667 249.03 -10.233334 249.03 -12.5C 249.03 -14.466667 248.76334 -15.916667 248.23 -16.85C 247.69667 -17.783333 246.54668 -18.25 244.78 -18.25zM270.33 -25.05C 273.53003 -25.050001 276.11334 -24.716667 278.08 -24.05C 280.04666 -23.383333 281.48666 -22.16 282.4 -20.38C 283.32 -18.593334 283.78003 -16.016668 283.78 -12.65L283.78 -12.65L283.78 -0.45L276.53 -0.45L276.28 -2.75L276.13 -2.75C 275.49667 -1.9166667 274.51334 -1.25 273.18 -0.75C 271.84668 -0.25 270.11334 0 267.98 0C 262.21332 0 259.33 -2.7000003 259.33 -8.1C 259.33 -10.400001 260.08667 -12.210001 261.6 -13.53C 263.12003 -14.843334 265.51337 -15.500001 268.78 -15.5L268.78 -15.5L276.18 -15.5C 275.94666 -16.900002 275.34668 -17.84 274.38 -18.32C 273.41333 -18.806667 271.76334 -19.05 269.43 -19.05C 267.96335 -19.05 266.52002 -18.943333 265.1 -18.73C 263.68668 -18.51 262.4467 -18.266666 261.38 -18L261.38 -18L261.23 -18.1L261.28 -23.9C 261.94666 -24.100002 262.79666 -24.293335 263.83 -24.48C 264.86334 -24.66 265.95337 -24.8 267.1 -24.9C 268.25336 -25 269.33002 -25.050001 270.33 -25.05zM270.03 -5.9C 272.09668 -5.9 273.64667 -6.16 274.68 -6.68C 275.71335 -7.1933336 276.2467 -8.016666 276.28 -9.15L276.28 -9.15L276.28 -10.4L270.63 -10.4C 269.16333 -10.4 268.13666 -10.193334 267.55 -9.78C 266.97 -9.36 266.68 -8.8 266.68 -8.1C 266.68 -7.266667 266.97998 -6.6933336 267.58 -6.38C 268.18 -6.0600004 268.99667 -5.9 270.03 -5.9zM297.12 -9.25L297.02 -0.45L289.02 -0.45L289.02 -24.8L295.52 -24.8L296.17 -19.8L296.32 -19.8C 296.62 -21.666668 297.33667 -23.010002 298.47 -23.83C 299.60333 -24.643333 301.28668 -25.050001 303.52 -25.05C 304.42 -25.050001 305.2367 -25.010002 305.97 -24.93C 306.70337 -24.843334 307.32 -24.766666 307.82 -24.7L307.82 -24.7L307.82 -16.9L307.72 -16.8C 307.18668 -16.933334 306.58002 -17.050001 305.9 -17.15C 305.21335 -17.25 304.43668 -17.3 303.57 -17.3C 302.33667 -17.3 301.23 -17.1 300.25 -16.7C 299.26334 -16.300001 298.49667 -15.526667 297.95 -14.38C 297.39667 -13.226667 297.12 -11.516666 297.12 -9.25zM332.77 -6.8L332.77 -1.25C 331.83667 -0.9166667 330.54666 -0.62666667 328.9 -0.38C 327.24667 -0.12666667 325.28668 0 323.02 0C 320.15335 0 317.71335 -0.37666667 315.7 -1.13C 313.68002 -1.8766667 312.15335 -3.16 311.12 -4.98C 310.08667 -6.793333 309.57 -9.316667 309.57 -12.55C 309.57 -16.95 310.58002 -20.133333 312.6 -22.1C 314.61334 -24.066668 317.73666 -25.050001 321.97 -25.05C 325.00333 -25.050001 327.39667 -24.616669 329.15 -23.75C 330.89667 -22.883335 332.14667 -21.66 332.9 -20.08C 333.64667 -18.493336 334.02 -16.616669 334.02 -14.45C 334.02 -13.816667 333.99667 -13.133333 333.95 -12.4C 333.89667 -11.666667 333.80334 -10.950001 333.67 -10.25L333.67 -10.25L333.47 -10.05L317.02 -10.05C 317.25333 -8.583334 317.94666 -7.616667 319.1 -7.15C 320.24667 -6.6833334 322.12 -6.4500003 324.72 -6.45C 326.45337 -6.4500003 327.89667 -6.493334 329.05 -6.58C 330.19666 -6.66 331.37 -6.7833333 332.57 -6.95L332.57 -6.95L332.77 -6.8zM316.87 -15.3L327.07 -15.3C 327.07 -16.1 326.9467 -16.793333 326.7 -17.38C 326.4467 -17.96 325.95334 -18.41 325.22 -18.73C 324.48666 -19.043335 323.40332 -19.2 321.97 -19.2C 319.87 -19.2 318.49667 -18.843334 317.85 -18.13C 317.1967 -17.41 316.87 -16.466667 316.87 -15.3zM346.27 -34.1L346.27 -0.45L338.27 -0.45L338.27 -34.1L346.27 -34.1zM375.26 -32.1L375.26 -0.45L367.26 -0.45L367.26 -32.1L375.26 -32.1zM389.26 -13L389.26 -0.45L381.26 -0.45L381.26 -24.8L388.86 -24.8L389.26 -20.35L389.41 -20.35C 389.87668 -21.850002 390.71002 -23.010002 391.91 -23.83C 393.11 -24.643333 394.77667 -25.050001 396.91 -25.05C 399.81003 -25.050001 401.95337 -24.233334 403.34 -22.6C 404.72003 -20.966667 405.41003 -18.133333 405.41 -14.1L405.41 -14.1L405.41 -0.45L397.41 -0.45L397.36 -12.55C 397.36002 -14.416667 397.0767 -15.75 396.51 -16.55C 395.94336 -17.35 394.87668 -17.75 393.31 -17.75C 391.84332 -17.75 390.81 -17.393333 390.21 -16.68C 389.61002 -15.960001 389.29333 -14.733334 389.26 -13zM429.66 -7.65L429.86 -7.5L429.86 -1C 429.02667 -0.6666667 427.79333 -0.4166667 426.16 -0.25C 424.52667 -0.083333336 422.79333 0 420.96 0C 418.3267 0 416.13336 -0.36666667 414.38 -1.1C 412.63336 -1.8333334 411.33337 -3.1000001 410.48 -4.9C 409.63336 -6.7 409.19336 -9.2 409.16 -12.4C 409.16003 -15.700001 409.6167 -18.266668 410.53 -20.1C 411.45 -21.933334 412.79337 -23.216667 414.56 -23.95C 416.3267 -24.683334 418.44336 -25.050001 420.91 -25.05C 422.37668 -25.050001 423.92667 -24.95 425.56 -24.75C 427.19336 -24.550001 428.5267 -24.283335 429.56 -23.95L429.56 -23.95L429.61 -17.25L429.46 -17.15C 428.46002 -17.35 427.39334 -17.5 426.26 -17.6C 425.12668 -17.7 424.01 -17.75 422.91 -17.75C 420.67667 -17.75 419.12668 -17.333334 418.26 -16.5C 417.39334 -15.666667 416.96 -14.266667 416.96 -12.3C 416.96 -10.800001 417.14334 -9.683333 417.51 -8.95C 417.87668 -8.216667 418.49335 -7.7333336 419.36 -7.5C 420.22668 -7.266667 421.41 -7.1500006 422.91 -7.15C 424.0767 -7.1500006 425.19336 -7.2000003 426.26 -7.3C 427.32666 -7.4 428.46 -7.516667 429.66 -7.65z" stroke="none" fill="#272B2B" fill-rule="nonzero" />
														</g>
													</g>
												</g>
											</g>
										</g>
									</g>
								</g>
							</g>
							<g transform="matrix(1 0 0 1 0 0.11356763)">
								<g transform="matrix(1 0 0 1 0 0)">
									<g>
										<g transform="matrix(2.2922354 0 0 2.2922354 0 0)">
                                            <path d="M5 10L8 10L8 8L5 8L5 10zM12.129 14.929C 13.897901 15.638048 15.786283 16.001602 17.692 16L17.692 16L22.764 16C 24.38 16 25.999 15.618 27.447 14.895L27.447 14.895L26.553001 13.1050005C 25.375942 13.691598 24.079126 13.997918 22.764002 14L22.764002 14L17.692001 14C 16.034 14 14.412002 13.688 12.871001 13.071C 11.1020975 12.361951 9.21372 11.998397 7.308 12L7.308 12L2.014 12C 2.098 8.87 2.554 6.237 2.8049998 5L2.8049998 5L3.62 5C 4.373 5 5.128 5.174 5.804 5.502L5.804 5.502L7.44 6.297C 8.387 6.757 9.444 7 10.498 7L10.498 7L12 7L12 5L10.498 5C 9.741523 4.998958 8.99501 4.82737 8.314 4.498L8.314 4.498L6.678 3.703C 5.724557 3.2415318 4.6792474 3.001227 3.62 3L3.62 3L1.219 3L1.03 3.758C 0.988 3.926 0 7.936 0 13L0 13L0 14L7.308 14C 8.966 14 10.588 14.313 12.129 14.929zM28.812 19.213C 27.846 19.696 26.663 20 25.578001 20L25.578001 20L3 20C 1.346 20 0 18.654 0 17L0 17L0 16L2 16L2 17C 2 17.552284 2.4477153 18 3 18L3 18L25.578 18C 26.354 18 27.227999 17.769 27.921 17.422C 29.199102 16.78663 30.005228 15.480312 30 14.053L30 14.053L30 11C 30 9.346 28.654 8 27 8L27 8L25.708 8C 25.087431 7.9990845 24.475487 7.854655 23.92 7.578L23.92 7.578L23.447 7.342L21.895 10.4470005L20.105 9.553L21.657999 6.4470005L19.446999 5.3420005L17.894999 8.4470005L16.105 7.5530005L17.657999 4.4470005L13.341999 2.2890005C 13.105054 2.1686049 12.8297615 2.1481137 12.577603 2.2321038C 12.325445 2.316094 12.117425 2.4975688 12 2.736L12 2.736L11.895 2.947L10.1050005 2.053L10.211 1.842C 10.565138 1.1291416 11.189405 0.5873165 11.945 0.337C 12.699912 0.08416128 13.5244875 0.14282775 14.236 0.5L14.236 0.5L24.813 5.789C 25.09 5.927 25.399 6 25.708 6L25.708 6L27 6C 29.757 6 32 8.243 32 11L32 11L32 14C 32 16.252 30.778 18.229 28.812 19.213z" stroke="none" fill="#DD6031" fill-rule="nonzero" />
										</g>
									</g>
								</g>
							</g>
						</g>
					</g>
				</g>
			</g>
		</g>
	</g>
</g>
</svg>